/* XPM */
static char *xpm_[] = {
/* columns rows colors chars-per-pixel */
"16 16 10 1 ",
"  c #CEA25A",
". c #E7D3A5",
"X c #AD8239",
"o c #380040",
"O c #F8A000",
"+ c #F8F828",
"@ c #F8F8F8",
"# c #F8E010",
"$ c #BD924A",
"% c #D6AA6B",
/* pixels */
" .XXX.ooo.XXX.  ",
"..XXXo+@@+XXX.  ",
"$$.XXo@OO@+XX...",
"$ooooo@O+O@+%%.$",
"o+@@@@@O#+O@+%%$",
"o@OOOOO#+#+O@+%$",
"o@O+#+#+#+#+O@+ ",
"o@O#+#+#+#+#+O+o",
"o@O+#+#+#+#+OO+o",
"o@O#+#+#+#+OO@o ",
"o@#OOOOO#+OO@o..",
"o#++++@O+OO@o%.$",
"$ooooo@OOO@o%%%$",
"$$.%%o@OO@o%%%%$",
" ..%%oO++o.%%%. ",
"  XX.oooo XX..  "
};
