/* XPM */
static char *xpm_[] = {
/* columns rows colors chars-per-pixel */
"32 32 10 1 ",
"  c #CEA25A",
". c #E7D3A5",
"X c #AD8239",
"o c #380040",
"O c #F8F828",
"+ c #F8A000",
"@ c #F8F8F8",
"# c #F8E010",
"$ c #BD924A",
"% c #D6AA6B",
/* pixels */
"   .XXXXXX..       .XXXXXX..    ",
"   .XXXXXXX. oooooo.XXXXXXX.    ",
"  ..XXXXXXX.oOOOOO+oXXXXXXX.    ",
" ...XXXXXXXoO@@@@@O+oXXXXXX.    ",
".....XXXXXoO@@+++#@OooXXXXX..   ",
"$$$$..XXXoO@@+++++@OooXXXX......",
"$$$$$...oO@@+++O++@Ooo..........",
"$$$$$..oO@@+++OO++@Oooooooooo..$",
"$$$$$.oO@@+++O##++@@OOOOOOOO#o.$",
"$$$$$oO@@+++OO##++@@@@@@@@@@O#o$",
"$$$$oO@@+++O##OO++++++++++#O@Ooo",
"$$$oO@@+++OO##OO#++++++++++#@Ooo",
"..oO@@+++O##OO##OO##OO##O+++@Ooo",
" oOO@+++OO##OO##OO##OO##OO++@Ooo",
"oOO@+++O##OO##OO##OO##OO##++@Ooo",
"oOO@++OO##OO##OO##OO##OO##++@Ooo",
"oOO@++##OO##OO##OO##OO##OO++@Ooo",
"oOO@+++#OO##OO##OO##OO##OO++@Ooo",
" oOO@+++##OO##OO##OO##OO##++@Ooo",
" .oO@@+++#OO##OO##OO##OO#+++@Ooo",
"...oO@@+++##OO##O++++++++++#@Ooo",
"$$$$oO@@+++#OO##++++++++++#O@Ooo",
"$$$$$oO@@+++##OO++@@@@@@@@@@O#oo",
"$$$$$.oO@@+++#OO++@@OOOOOOOO#ooo",
"$$$$$.%oO@@+++##++@Oooooooooooo$",
"$$$$$.%%oO@@+++#++@Ooooooooooo.$",
"$$$$$.%%%oO@@+++++@Ooo%%%%%%%%.$",
"$$$$..%%%%oO@@+++#@Ooo%%%%%%%%.$",
"......%%%%%oO@@@@@O+oo%%%%%%%%..",
"   ....%%%%%oOOOOO+ooo.%%%%%%.. ",
"    .....%%%.ooooooooo...%%%..  ",
"    .XXXX.... oooooooXXXX....   "
};
