/* XPM */
static char *xpm_[] = {
/* columns rows colors chars-per-pixel */
"32 32 10 1 ",
"  c #CEA25A",
". c #E7D3A5",
"X c #AD8239",
"o c #380040",
"O c #F8E010",
"+ c #F8F828",
"@ c #F8F8F8",
"# c #F8A000",
"$ c #BD924A",
"% c #D6AA6B",
/* pixels */
"   .XXXXXXooooooooooooooXX..    ",
"   .XXXXXooooooooooooooooXX.    ",
"  ..XXXXoO++++++++++++OoooX.    ",
" ...XXXoO+@@@@@@@@@@@@+OooX.    ",
".....XXo+@+O########O+@+ooX..   ",
"$$$$..Xo+@O##########O@+oo......",
"$$$$$..o+@###+OO++O###@+oo......",
"$$$$$..o+@##++OO++OO##@+oo%%%..$",
"$$$$$.%o+@##OO++OO++##@+oo%%%%.$",
"$$$$$.%o+@##OO++OO++##@+oo%%%%.$",
"$$$$oooo+@##++OO++OO##@+ooooooo$",
"$$$ooooo+@##++OO++OO##@+oooooooo",
"..o#++++@@##OO++OO++##@@++++#ooo",
" o#+@@@@@@##OO++OO++##@@@@@@+#oo",
" o+@O#######++OO++OO#######O@+oo",
" o+@#######O++OO++OO+#######@+oo",
" o+@##++OO++OO++OO++OO++OO##@+oo",
" o+@###+OO++OO++OO++OO++O###@+oo",
" o+@@###++OO++OO++OO++OO###@@+o ",
" .o+@@###+OO++OO++OO++O###@@+o  ",
"...o+@@###++OO++OO++OO###@@+o   ",
"$$$$o+@@###+OO++OO++O###@@+o....",
"$$$$$o+@@###++OO++OO###@@+o.....",
"$$$$$.o+@@###+OO++O###@@+o%%%..$",
"$$$$$.%o+@@###++OO###@@+o%%%%%.$",
"$$$$$.%%o+@@###+O###@@+o%%%%%%.$",
"$$$$$.%%%o+@@######@@+o%%%%%%%.$",
"$$$$..%%%%o+@@####@@+o%%%%%%%%.$",
"......%%%%%o++@@@@++o.%%%%%%%%..",
"   ....%%%%%o++++++o...%%%%%%.. ",
"    .....%%%.o++++o .....%%%..  ",
"    .XXXX.... oooo  .XXXX....   "
};
