/* XPM */
static char *xpm_[] = {
/* columns rows colors chars-per-pixel */
"16 16 10 1 ",
"  c #CEA25A",
". c #E7D3A5",
"X c #AD8239",
"o c #380040",
"O c #F8F828",
"+ c #F8F8F8",
"@ c #F8A000",
"# c #BD924A",
"$ c #F8E010",
"% c #D6AA6B",
/* pixels */
" .XXX.oOO.XXX.  ",
"..XXXoO++OXXX.  ",
"##.Xo+@@@+OXX...",
"##.o+@@O$@+O%%.#",
"##o+@@O$O$@+O%%#",
"#o+@@O$O$O$@+O%#",
"o+@@O$O$O$O$@+O ",
"o+@O$O$O$O$O$@Oo",
"o+@@@@O$O$@@@$Oo",
".@OO+@$O$O@+OOoo",
"##oo+@O$O$@Oooo.",
"##.o+@$O$O@Oo%.#",
"##.o+@O$O@@Oo%%#",
"##.o+$@@@@OOo%%#",
" ..%$OOOOOOoo%. ",
"  XX.ooooooo..  "
};
