/* XPM */
static char *xpm_[] = {
/* coolumns roows cooloors chars-per-pixel */
"64 64 10 1 ",
"  c #CEA25A",
". c #E7D3A5",
"X c #AD8239",
"o c #380040",
"O c #F8F828",
"+ c #F8A000",
"@ c #F8F8F8",
"# c #F8E010",
"$ c #BD924A",
"% c #D6AA6B",
/* pixXels */
"      ..XXXXXXXXXXXX....              ..XXXXXXXXXXXX....        ",
"      ..XXXXXXXXXXXX....              ..XXXXXXXXXXXX....        ",
"      ..XXXXXXXXXXXXXX..  oooooooooooo..XXXXXXXXXXXXXX..        ",
"      ..XXXXXXXXXXXXXX..  oooooooooooo..XXXXXXXXXXXXXX..        ",
"    ....XXXXXXXXXXXXXX..ooOOOOOOOOOO++ooXXXXXXXXXXXXXX..        ",
"    ....XXXXXXXXXXXXXX..ooOOOOOOOOOO++ooXXXXXXXXXXXXXX..        ",
"  ......XXXXXXXXXXXXXXooOO@@@@@@@@@@OO++ooXXXXXXXXXXXX..        ",
"  ......XXXXXXXXXXXXXXooOO@@@@@@@@@@OO++ooXXXXXXXXXXXX..        ",
"..........XXXXXXXXXXooOO@@@@++++++##@@OOooooXXXXXXXXXX....      ",
"..........XXXXXXXXXXooOO@@@@++++++##@@OOooooXXXXXXXXXX....      ",
"$$$$$$$$....XXXXXXooOO@@@@++++++++++@@OOooooXXXXXXXX............",
"$$$$$$$$....XXXXXXooOO@@@@++++++++++@@OOooooXXXXXXXX............",
"$$$$$$$$$$......ooOO@@@@++++++OO++++@@OOoooo....................",
"$$$$$$$$$$......ooOO@@@@++++++OO++++@@OOoooo....................",
"$$$$$$$$$$....ooOO@@@@++++++OOOO++++@@OOoooooooooooooooooo....$$",
"$$$$$$$$$$....ooOO@@@@++++++OOOO++++@@OOoooooooooooooooooo....$$",
"$$$$$$$$$$..ooOO@@@@++++++OO####++++@@@@OOOOOOOOOOOOOOOO##oo..$$",
"$$$$$$$$$$..ooOO@@@@++++++OO####++++@@@@OOOOOOOOOOOOOOOO##oo..$$",
"$$$$$$$$$$ooOO@@@@++++++OOOO####++++@@@@@@@@@@@@@@@@@@@@OO##oo$$",
"$$$$$$$$$$ooOO@@@@++++++OOOO####++++@@@@@@@@@@@@@@@@@@@@OO##oo$$",
"$$$$$$$$ooOO@@@@++++++OO####OOOO++++++++++++++++++++##OO@@OOoooo",
"$$$$$$$$ooOO@@@@++++++OO####OOOO++++++++++++++++++++##OO@@OOoooo",
"$$$$$$ooOO@@@@++++++OOOO####OOOO##++++++++++++++++++++##@@OOoooo",
"$$$$$$ooOO@@@@++++++OOOO####OOOO##++++++++++++++++++++##@@OOoooo",
"....ooOO@@@@++++++OO####OOOO####OOOO####OOOO####OO++++++@@OOoooo",
"....ooOO@@@@++++++OO####OOOO####OOOO####OOOO####OO++++++@@OOoooo",
"  ooOOOO@@++++++OOOO####OOOO####OOOO####OOOO####OOOO++++@@OOoooo",
"  ooOOOO@@++++++OOOO####OOOO####OOOO####OOOO####OOOO++++@@OOoooo",
"ooOOOO@@++++++OO####OOOO####OOOO####OOOO####OOOO####++++@@OOoooo",
"ooOOOO@@++++++OO####OOOO####OOOO####OOOO####OOOO####++++@@OOoooo",
"ooOOOO@@++++OOOO####OOOO####OOOO####OOOO####OOOO####++++@@OOoooo",
"ooOOOO@@++++OOOO####OOOO####OOOO####OOOO####OOOO####++++@@OOoooo",
"ooOOOO@@++++####OOOO####OOOO####OOOO####OOOO####OOOO++++@@OOoooo",
"ooOOOO@@++++####OOOO####OOOO####OOOO####OOOO####OOOO++++@@OOoooo",
"ooOOOO@@++++++##OOOO####OOOO####OOOO####OOOO####OOOO++++@@OOoooo",
"ooOOOO@@++++++##OOOO####OOOO####OOOO####OOOO####OOOO++++@@OOoooo",
"  ooOOOO@@++++++####OOOO####OOOO####OOOO####OOOO####++++@@OOoooo",
"  ooOOOO@@++++++####OOOO####OOOO####OOOO####OOOO####++++@@OOoooo",
"  ..ooOO@@@@++++++##OOOO####OOOO####OOOO####OOOO##++++++@@OOoooo",
"  ..ooOO@@@@++++++##OOOO####OOOO####OOOO####OOOO##++++++@@OOoooo",
"......ooOO@@@@++++++####OOOO####OO++++++++++++++++++++##@@OOoooo",
"......ooOO@@@@++++++####OOOO####OO++++++++++++++++++++##@@OOoooo",
"$$$$$$$$ooOO@@@@++++++##OOOO####++++++++++++++++++++##OO@@OOoooo",
"$$$$$$$$ooOO@@@@++++++##OOOO####++++++++++++++++++++##OO@@OOoooo",
"$$$$$$$$$$ooOO@@@@++++++####OOOO++++@@@@@@@@@@@@@@@@@@@@OO##oooo",
"$$$$$$$$$$ooOO@@@@++++++####OOOO++++@@@@@@@@@@@@@@@@@@@@OO##oooo",
"$$$$$$$$$$..ooOO@@@@++++++##OOOO++++@@@@OOOOOOOOOOOOOOOO##oooooo",
"$$$$$$$$$$..ooOO@@@@++++++##OOOO++++@@@@OOOOOOOOOOOOOOOO##oooooo",
"$$$$$$$$$$..%%ooOO@@@@++++++####++++@@OOoooooooooooooooooooooo$$",
"$$$$$$$$$$..%%ooOO@@@@++++++####++++@@OOoooooooooooooooooooooo$$",
"$$$$$$$$$$..%%%%ooOO@@@@++++++##++++@@OOoooooooooooooooooooo..$$",
"$$$$$$$$$$..%%%%ooOO@@@@++++++##++++@@OOoooooooooooooooooooo..$$",
"$$$$$$$$$$..%%%%%%ooOO@@@@++++++++++@@OOoooo%%%%%%%%%%%%%%%%..$$",
"$$$$$$$$$$..%%%%%%ooOO@@@@++++++++++@@OOoooo%%%%%%%%%%%%%%%%..$$",
"$$$$$$$$....%%%%%%%%ooOO@@@@++++++##@@OOoooo%%%%%%%%%%%%%%%%..$$",
"$$$$$$$$....%%%%%%%%ooOO@@@@++++++##@@OOoooo%%%%%%%%%%%%%%%%..$$",
"............%%%%%%%%%%ooOO@@@@@@@@@@OO++oooo%%%%%%%%%%%%%%%%....",
"............%%%%%%%%%%ooOO@@@@@@@@@@OO++oooo%%%%%%%%%%%%%%%%....",
"      ........%%%%%%%%%%ooOOOOOOOOOO++oooooo..%%%%%%%%%%%%....  ",
"      ........%%%%%%%%%%ooOOOOOOOOOO++oooooo..%%%%%%%%%%%%....  ",
"        ..........%%%%%%..oooooooooooooooooo......%%%%%%....    ",
"        ..........%%%%%%..oooooooooooooooooo......%%%%%%....    ",
"        ..XXXXXXXX........  ooooooooooooooXXXXXXXX........      "
"        ..XXXXXXXX........  ooooooooooooooXXXXXXXX........      "
};