/* XPM */
static char *xpm_[] = {
/* columns rows colors chars-per-pixel */
"16 16 10 1 ",
"  c #CEA25A",
". c #E7D3A5",
"X c #AD8239",
"o c #380040",
"O c #F8E010",
"+ c #F8F828",
"@ c #F8F8F8",
"# c #F8A000",
"$ c #BD924A",
"% c #D6AA6B",
/* pixels */
" .XXooooooooX.  ",
"..Xo+@@@@@@Oo.  ",
"$$.o@#####O+o...",
"$$.o@#+O+O#+o%.$",
"$$.o@#O+O+#+o%%$",
"$ooo@#+O+O#+oooo",
"o+@@@#O+O+#@@@#o",
"o@###O+O+O####+o",
"o@#+O+O+O+O+##+o",
".+@#+O+O+O+##@o ",
"$$+@#+O+O+##@o..",
"$$.+@#+O+##@o%.$",
"$$.%+@#+##@o%%%$",
"$$.%%+@##@o%%%%$",
" ..%%%+++o.%%%. ",
"  XX.. oo XX..  "
};
