/* XPM */
static char *xpm_[] = {
"128 128 10 1 ",
"  c #CEA25A",
". c #E7D3A5",
"X c #AD8239",
"o c #380040",
"O c #F8E010",
"+ c #F8F828",
"@ c #F8F8F8",
"# c #F8A000",
"$ c #BD924A",
"% c #D6AA6B",
"            ....XXXXXXXXXXXXXXXXXXXXXXXXooooooooooooooooooooooooooooooooooooooooooooooooooooooooXXXXXXXX........                ",
"            ....XXXXXXXXXXXXXXXXXXXXXXXXooooooooooooooooooooooooooooooooooooooooooooooooooooooooXXXXXXXX........                ",
"            ....XXXXXXXXXXXXXXXXXXXXXXXXooooooooooooooooooooooooooooooooooooooooooooooooooooooooXXXXXXXX........                ",
"            ....XXXXXXXXXXXXXXXXXXXXXXXXooooooooooooooooooooooooooooooooooooooooooooooooooooooooXXXXXXXX........                ",
"            ....XXXXXXXXXXXXXXXXXXXXooooooooooooooooooooooooooooooooooooooooooooooooooooooooooooooooXXXXXXXX....                ",
"            ....XXXXXXXXXXXXXXXXXXXXooooooooooooooooooooooooooooooooooooooooooooooooooooooooooooooooXXXXXXXX....                ",
"            ....XXXXXXXXXXXXXXXXXXXXooooooooooooooooooooooooooooooooooooooooooooooooooooooooooooooooXXXXXXXX....                ",
"            ....XXXXXXXXXXXXXXXXXXXXooooooooooooooooooooooooooooooooooooooooooooooooooooooooooooooooXXXXXXXX....                ",
"        ........XXXXXXXXXXXXXXXXooooOOOO++++++++++++++++++++++++++++++++++++++++++++++++OOOOooooooooooooXXXX....                ",
"        ........XXXXXXXXXXXXXXXXooooOOOO++++++++++++++++++++++++++++++++++++++++++++++++OOOOooooooooooooXXXX....                ",
"        ........XXXXXXXXXXXXXXXXooooOOOO++++++++++++++++++++++++++++++++++++++++++++++++OOOOooooooooooooXXXX....                ",
"        ........XXXXXXXXXXXXXXXXooooOOOO++++++++++++++++++++++++++++++++++++++++++++++++OOOOooooooooooooXXXX....                ",
"    ............XXXXXXXXXXXXooooOOOO++++@@@@@@@@@@@@@@@@@@@@@@@@@@@@@@@@@@@@@@@@@@@@@@@@++++OOOOooooooooXXXX....                ",
"    ............XXXXXXXXXXXXooooOOOO++++@@@@@@@@@@@@@@@@@@@@@@@@@@@@@@@@@@@@@@@@@@@@@@@@++++OOOOooooooooXXXX....                ",
"    ............XXXXXXXXXXXXooooOOOO++++@@@@@@@@@@@@@@@@@@@@@@@@@@@@@@@@@@@@@@@@@@@@@@@@++++OOOOooooooooXXXX....                ",
"    ............XXXXXXXXXXXXooooOOOO++++@@@@@@@@@@@@@@@@@@@@@@@@@@@@@@@@@@@@@@@@@@@@@@@@++++OOOOooooooooXXXX....                ",
"....................XXXXXXXXoooo++++@@@@++++OOOO################################OOOO++++@@@@++++ooooooooXXXX........            ",
"....................XXXXXXXXoooo++++@@@@++++OOOO################################OOOO++++@@@@++++ooooooooXXXX........            ",
"....................XXXXXXXXoooo++++@@@@++++OOOO################################OOOO++++@@@@++++ooooooooXXXX........            ",
"....................XXXXXXXXoooo++++@@@@++++OOOO################################OOOO++++@@@@++++ooooooooXXXX........            ",
"$$$$$$$$$$$$$$$$........XXXXoooo++++@@@@OOOO########################################OOOO@@@@++++oooooooo........................",
"$$$$$$$$$$$$$$$$........XXXXoooo++++@@@@OOOO########################################OOOO@@@@++++oooooooo........................",
"$$$$$$$$$$$$$$$$........XXXXoooo++++@@@@OOOO########################################OOOO@@@@++++oooooooo........................",
"$$$$$$$$$$$$$$$$........XXXXoooo++++@@@@OOOO########################################OOOO@@@@++++oooooooo........................",
"$$$$$$$$$$$$$$$$$$$$........oooo++++@@@@############++++OOOOOOOO++++++++OOOO############@@@@++++oooooooo........................",
"$$$$$$$$$$$$$$$$$$$$........oooo++++@@@@############++++OOOOOOOO++++++++OOOO############@@@@++++oooooooo........................",
"$$$$$$$$$$$$$$$$$$$$........oooo++++@@@@############++++OOOOOOOO++++++++OOOO############@@@@++++oooooooo........................",
"$$$$$$$$$$$$$$$$$$$$........oooo++++@@@@############++++OOOOOOOO++++++++OOOO############@@@@++++oooooooo........................",
"$$$$$$$$$$$$$$$$$$$$........oooo++++@@@@########++++++++OOOOOOOO++++++++OOOOOOOO########@@@@++++oooooooo%%%%%%%%%%%%........$$$$",
"$$$$$$$$$$$$$$$$$$$$........oooo++++@@@@########++++++++OOOOOOOO++++++++OOOOOOOO########@@@@++++oooooooo%%%%%%%%%%%%........$$$$",
"$$$$$$$$$$$$$$$$$$$$........oooo++++@@@@########++++++++OOOOOOOO++++++++OOOOOOOO########@@@@++++oooooooo%%%%%%%%%%%%........$$$$",
"$$$$$$$$$$$$$$$$$$$$........oooo++++@@@@########++++++++OOOOOOOO++++++++OOOOOOOO########@@@@++++oooooooo%%%%%%%%%%%%........$$$$",
"$$$$$$$$$$$$$$$$$$$$....%%%%oooo++++@@@@########OOOOOOOO++++++++OOOOOOOO++++++++########@@@@++++oooooooo%%%%%%%%%%%%%%%%....$$$$",
"$$$$$$$$$$$$$$$$$$$$....%%%%oooo++++@@@@########OOOOOOOO++++++++OOOOOOOO++++++++########@@@@++++oooooooo%%%%%%%%%%%%%%%%....$$$$",
"$$$$$$$$$$$$$$$$$$$$....%%%%oooo++++@@@@########OOOOOOOO++++++++OOOOOOOO++++++++########@@@@++++oooooooo%%%%%%%%%%%%%%%%....$$$$",
"$$$$$$$$$$$$$$$$$$$$....%%%%oooo++++@@@@########OOOOOOOO++++++++OOOOOOOO++++++++########@@@@++++oooooooo%%%%%%%%%%%%%%%%....$$$$",
"$$$$$$$$$$$$$$$$$$$$....%%%%oooo++++@@@@########OOOOOOOO++++++++OOOOOOOO++++++++########@@@@++++oooooooo%%%%%%%%%%%%%%%%....$$$$",
"$$$$$$$$$$$$$$$$$$$$....%%%%oooo++++@@@@########OOOOOOOO++++++++OOOOOOOO++++++++########@@@@++++oooooooo%%%%%%%%%%%%%%%%....$$$$",
"$$$$$$$$$$$$$$$$$$$$....%%%%oooo++++@@@@########OOOOOOOO++++++++OOOOOOOO++++++++########@@@@++++oooooooo%%%%%%%%%%%%%%%%....$$$$",
"$$$$$$$$$$$$$$$$$$$$....%%%%oooo++++@@@@########OOOOOOOO++++++++OOOOOOOO++++++++########@@@@++++oooooooo%%%%%%%%%%%%%%%%....$$$$",
"$$$$$$$$$$$$$$$$oooooooooooooooo++++@@@@########++++++++OOOOOOOO++++++++OOOOOOOO########@@@@++++oooooooooooooooooooooooooooo$$$$",
"$$$$$$$$$$$$$$$$oooooooooooooooo++++@@@@########++++++++OOOOOOOO++++++++OOOOOOOO########@@@@++++oooooooooooooooooooooooooooo$$$$",
"$$$$$$$$$$$$$$$$oooooooooooooooo++++@@@@########++++++++OOOOOOOO++++++++OOOOOOOO########@@@@++++oooooooooooooooooooooooooooo$$$$",
"$$$$$$$$$$$$$$$$oooooooooooooooo++++@@@@########++++++++OOOOOOOO++++++++OOOOOOOO########@@@@++++oooooooooooooooooooooooooooo$$$$",
"$$$$$$$$$$$$oooooooooooooooooooo++++@@@@########++++++++OOOOOOOO++++++++OOOOOOOO########@@@@++++oooooooooooooooooooooooooooooooo",
"$$$$$$$$$$$$oooooooooooooooooooo++++@@@@########++++++++OOOOOOOO++++++++OOOOOOOO########@@@@++++oooooooooooooooooooooooooooooooo",
"$$$$$$$$$$$$oooooooooooooooooooo++++@@@@########++++++++OOOOOOOO++++++++OOOOOOOO########@@@@++++oooooooooooooooooooooooooooooooo",
"$$$$$$$$$$$$oooooooooooooooooooo++++@@@@########++++++++OOOOOOOO++++++++OOOOOOOO########@@@@++++oooooooooooooooooooooooooooooooo",
"........oooo####++++++++++++++++@@@@@@@@########OOOOOOOO++++++++OOOOOOOO++++++++########@@@@@@@@++++++++++++++++####oooooooooooo",
"........oooo####++++++++++++++++@@@@@@@@########OOOOOOOO++++++++OOOOOOOO++++++++########@@@@@@@@++++++++++++++++####oooooooooooo",
"........oooo####++++++++++++++++@@@@@@@@########OOOOOOOO++++++++OOOOOOOO++++++++########@@@@@@@@++++++++++++++++####oooooooooooo",
"........oooo####++++++++++++++++@@@@@@@@########OOOOOOOO++++++++OOOOOOOO++++++++########@@@@@@@@++++++++++++++++####oooooooooooo",
"    oooo####++++@@@@@@@@@@@@@@@@@@@@@@@@########OOOOOOOO++++++++OOOOOOOO++++++++########@@@@@@@@@@@@@@@@@@@@@@@@++++####oooooooo",
"    oooo####++++@@@@@@@@@@@@@@@@@@@@@@@@########OOOOOOOO++++++++OOOOOOOO++++++++########@@@@@@@@@@@@@@@@@@@@@@@@++++####oooooooo",
"    oooo####++++@@@@@@@@@@@@@@@@@@@@@@@@########OOOOOOOO++++++++OOOOOOOO++++++++########@@@@@@@@@@@@@@@@@@@@@@@@++++####oooooooo",
"    oooo####++++@@@@@@@@@@@@@@@@@@@@@@@@########OOOOOOOO++++++++OOOOOOOO++++++++########@@@@@@@@@@@@@@@@@@@@@@@@++++####oooooooo",
"    oooo++++@@@@OOOO############################++++++++OOOOOOOO++++++++OOOOOOOO############################OOOO@@@@++++oooooooo",
"    oooo++++@@@@OOOO############################++++++++OOOOOOOO++++++++OOOOOOOO############################OOOO@@@@++++oooooooo",
"    oooo++++@@@@OOOO############################++++++++OOOOOOOO++++++++OOOOOOOO############################OOOO@@@@++++oooooooo",
"    oooo++++@@@@OOOO############################++++++++OOOOOOOO++++++++OOOOOOOO############################OOOO@@@@++++oooooooo",
"    oooo++++@@@@############################OOOO++++++++OOOOOOOO++++++++OOOOOOOO++++############################@@@@++++oooooooo",
"    oooo++++@@@@############################OOOO++++++++OOOOOOOO++++++++OOOOOOOO++++############################@@@@++++oooooooo",
"    oooo++++@@@@############################OOOO++++++++OOOOOOOO++++++++OOOOOOOO++++############################@@@@++++oooooooo",
"    oooo++++@@@@############################OOOO++++++++OOOOOOOO++++++++OOOOOOOO++++############################@@@@++++oooooooo",
"    oooo++++@@@@########++++++++OOOOOOOO++++++++OOOOOOOO++++++++OOOOOOOO++++++++OOOOOOOO++++++++OOOOOOOO########@@@@++++oooooooo",
"    oooo++++@@@@########++++++++OOOOOOOO++++++++OOOOOOOO++++++++OOOOOOOO++++++++OOOOOOOO++++++++OOOOOOOO########@@@@++++oooooooo",
"    oooo++++@@@@########++++++++OOOOOOOO++++++++OOOOOOOO++++++++OOOOOOOO++++++++OOOOOOOO++++++++OOOOOOOO########@@@@++++oooooooo",
"    oooo++++@@@@########++++++++OOOOOOOO++++++++OOOOOOOO++++++++OOOOOOOO++++++++OOOOOOOO++++++++OOOOOOOO########@@@@++++oooooooo",
"    oooo++++@@@@############++++OOOOOOOO++++++++OOOOOOOO++++++++OOOOOOOO++++++++OOOOOOOO++++++++OOOO############@@@@++++oooooooo",
"    oooo++++@@@@############++++OOOOOOOO++++++++OOOOOOOO++++++++OOOOOOOO++++++++OOOOOOOO++++++++OOOO############@@@@++++oooooooo",
"    oooo++++@@@@############++++OOOOOOOO++++++++OOOOOOOO++++++++OOOOOOOO++++++++OOOOOOOO++++++++OOOO############@@@@++++oooooooo",
"    oooo++++@@@@############++++OOOOOOOO++++++++OOOOOOOO++++++++OOOOOOOO++++++++OOOOOOOO++++++++OOOO############@@@@++++oooooooo",
"    oooo++++@@@@@@@@############++++++++OOOOOOOO++++++++OOOOOOOO++++++++OOOOOOOO++++++++OOOOOOOO############@@@@@@@@++++oooo    ",
"    oooo++++@@@@@@@@############++++++++OOOOOOOO++++++++OOOOOOOO++++++++OOOOOOOO++++++++OOOOOOOO############@@@@@@@@++++oooo    ",
"    oooo++++@@@@@@@@############++++++++OOOOOOOO++++++++OOOOOOOO++++++++OOOOOOOO++++++++OOOOOOOO############@@@@@@@@++++oooo    ",
"    oooo++++@@@@@@@@############++++++++OOOOOOOO++++++++OOOOOOOO++++++++OOOOOOOO++++++++OOOOOOOO############@@@@@@@@++++oooo    ",
"    ....oooo++++@@@@@@@@############++++OOOOOOOO++++++++OOOOOOOO++++++++OOOOOOOO++++++++OOOO############@@@@@@@@++++oooo        ",
"    ....oooo++++@@@@@@@@############++++OOOOOOOO++++++++OOOOOOOO++++++++OOOOOOOO++++++++OOOO############@@@@@@@@++++oooo        ",
"    ....oooo++++@@@@@@@@############++++OOOOOOOO++++++++OOOOOOOO++++++++OOOOOOOO++++++++OOOO############@@@@@@@@++++oooo        ",
"    ....oooo++++@@@@@@@@############++++OOOOOOOO++++++++OOOOOOOO++++++++OOOOOOOO++++++++OOOO############@@@@@@@@++++oooo        ",
"............oooo++++@@@@@@@@############++++++++OOOOOOOO++++++++OOOOOOOO++++++++OOOOOOOO############@@@@@@@@++++oooo            ",
"............oooo++++@@@@@@@@############++++++++OOOOOOOO++++++++OOOOOOOO++++++++OOOOOOOO############@@@@@@@@++++oooo            ",
"............oooo++++@@@@@@@@############++++++++OOOOOOOO++++++++OOOOOOOO++++++++OOOOOOOO############@@@@@@@@++++oooo            ",
"............oooo++++@@@@@@@@############++++++++OOOOOOOO++++++++OOOOOOOO++++++++OOOOOOOO############@@@@@@@@++++oooo            ",
"$$$$$$$$$$$$$$$$oooo++++@@@@@@@@############++++OOOOOOOO++++++++OOOOOOOO++++++++OOOO############@@@@@@@@++++oooo................",
"$$$$$$$$$$$$$$$$oooo++++@@@@@@@@############++++OOOOOOOO++++++++OOOOOOOO++++++++OOOO############@@@@@@@@++++oooo................",
"$$$$$$$$$$$$$$$$oooo++++@@@@@@@@############++++OOOOOOOO++++++++OOOOOOOO++++++++OOOO############@@@@@@@@++++oooo................",
"$$$$$$$$$$$$$$$$oooo++++@@@@@@@@############++++OOOOOOOO++++++++OOOOOOOO++++++++OOOO############@@@@@@@@++++oooo................",
"$$$$$$$$$$$$$$$$$$$$oooo++++@@@@@@@@############++++++++OOOOOOOO++++++++OOOOOOOO############@@@@@@@@++++oooo....................",
"$$$$$$$$$$$$$$$$$$$$oooo++++@@@@@@@@############++++++++OOOOOOOO++++++++OOOOOOOO############@@@@@@@@++++oooo....................",
"$$$$$$$$$$$$$$$$$$$$oooo++++@@@@@@@@############++++++++OOOOOOOO++++++++OOOOOOOO############@@@@@@@@++++oooo....................",
"$$$$$$$$$$$$$$$$$$$$oooo++++@@@@@@@@############++++++++OOOOOOOO++++++++OOOOOOOO############@@@@@@@@++++oooo....................",
"$$$$$$$$$$$$$$$$$$$$....oooo++++@@@@@@@@############++++OOOOOOOO++++++++OOOO############@@@@@@@@++++oooo%%%%%%%%%%%%........$$$$",
"$$$$$$$$$$$$$$$$$$$$....oooo++++@@@@@@@@############++++OOOOOOOO++++++++OOOO############@@@@@@@@++++oooo%%%%%%%%%%%%........$$$$",
"$$$$$$$$$$$$$$$$$$$$....oooo++++@@@@@@@@############++++OOOOOOOO++++++++OOOO############@@@@@@@@++++oooo%%%%%%%%%%%%........$$$$",
"$$$$$$$$$$$$$$$$$$$$....oooo++++@@@@@@@@############++++OOOOOOOO++++++++OOOO############@@@@@@@@++++oooo%%%%%%%%%%%%........$$$$",
"$$$$$$$$$$$$$$$$$$$$....%%%%oooo++++@@@@@@@@############++++++++OOOOOOOO############@@@@@@@@++++oooo%%%%%%%%%%%%%%%%%%%%....$$$$",
"$$$$$$$$$$$$$$$$$$$$....%%%%oooo++++@@@@@@@@############++++++++OOOOOOOO############@@@@@@@@++++oooo%%%%%%%%%%%%%%%%%%%%....$$$$",
"$$$$$$$$$$$$$$$$$$$$....%%%%oooo++++@@@@@@@@############++++++++OOOOOOOO############@@@@@@@@++++oooo%%%%%%%%%%%%%%%%%%%%....$$$$",
"$$$$$$$$$$$$$$$$$$$$....%%%%oooo++++@@@@@@@@############++++++++OOOOOOOO############@@@@@@@@++++oooo%%%%%%%%%%%%%%%%%%%%....$$$$",
"$$$$$$$$$$$$$$$$$$$$....%%%%%%%%oooo++++@@@@@@@@############++++OOOO############@@@@@@@@++++oooo%%%%%%%%%%%%%%%%%%%%%%%%....$$$$",
"$$$$$$$$$$$$$$$$$$$$....%%%%%%%%oooo++++@@@@@@@@############++++OOOO############@@@@@@@@++++oooo%%%%%%%%%%%%%%%%%%%%%%%%....$$$$",
"$$$$$$$$$$$$$$$$$$$$....%%%%%%%%oooo++++@@@@@@@@############++++OOOO############@@@@@@@@++++oooo%%%%%%%%%%%%%%%%%%%%%%%%....$$$$",
"$$$$$$$$$$$$$$$$$$$$....%%%%%%%%oooo++++@@@@@@@@############++++OOOO############@@@@@@@@++++oooo%%%%%%%%%%%%%%%%%%%%%%%%....$$$$",
"$$$$$$$$$$$$$$$$$$$$....%%%%%%%%%%%%oooo++++@@@@@@@@########################@@@@@@@@++++oooo%%%%%%%%%%%%%%%%%%%%%%%%%%%%....$$$$",
"$$$$$$$$$$$$$$$$$$$$....%%%%%%%%%%%%oooo++++@@@@@@@@########################@@@@@@@@++++oooo%%%%%%%%%%%%%%%%%%%%%%%%%%%%....$$$$",
"$$$$$$$$$$$$$$$$$$$$....%%%%%%%%%%%%oooo++++@@@@@@@@########################@@@@@@@@++++oooo%%%%%%%%%%%%%%%%%%%%%%%%%%%%....$$$$",
"$$$$$$$$$$$$$$$$$$$$....%%%%%%%%%%%%oooo++++@@@@@@@@########################@@@@@@@@++++oooo%%%%%%%%%%%%%%%%%%%%%%%%%%%%....$$$$",
"$$$$$$$$$$$$$$$$........%%%%%%%%%%%%%%%%oooo++++@@@@@@@@################@@@@@@@@++++oooo%%%%%%%%%%%%%%%%%%%%%%%%%%%%%%%%....$$$$",
"$$$$$$$$$$$$$$$$........%%%%%%%%%%%%%%%%oooo++++@@@@@@@@################@@@@@@@@++++oooo%%%%%%%%%%%%%%%%%%%%%%%%%%%%%%%%....$$$$",
"$$$$$$$$$$$$$$$$........%%%%%%%%%%%%%%%%oooo++++@@@@@@@@################@@@@@@@@++++oooo%%%%%%%%%%%%%%%%%%%%%%%%%%%%%%%%....$$$$",
"$$$$$$$$$$$$$$$$........%%%%%%%%%%%%%%%%oooo++++@@@@@@@@################@@@@@@@@++++oooo%%%%%%%%%%%%%%%%%%%%%%%%%%%%%%%%....$$$$",
"........................%%%%%%%%%%%%%%%%%%%%oooo++++++++@@@@@@@@@@@@@@@@++++++++oooo....%%%%%%%%%%%%%%%%%%%%%%%%%%%%%%%%........",
"........................%%%%%%%%%%%%%%%%%%%%oooo++++++++@@@@@@@@@@@@@@@@++++++++oooo....%%%%%%%%%%%%%%%%%%%%%%%%%%%%%%%%........",
"........................%%%%%%%%%%%%%%%%%%%%oooo++++++++@@@@@@@@@@@@@@@@++++++++oooo....%%%%%%%%%%%%%%%%%%%%%%%%%%%%%%%%........",
"........................%%%%%%%%%%%%%%%%%%%%oooo++++++++@@@@@@@@@@@@@@@@++++++++oooo....%%%%%%%%%%%%%%%%%%%%%%%%%%%%%%%%........",
"            ................%%%%%%%%%%%%%%%%%%%%oooo++++++++++++++++++++++++oooo............%%%%%%%%%%%%%%%%%%%%%%%%........    ",
"            ................%%%%%%%%%%%%%%%%%%%%oooo++++++++++++++++++++++++oooo............%%%%%%%%%%%%%%%%%%%%%%%%........    ",
"            ................%%%%%%%%%%%%%%%%%%%%oooo++++++++++++++++++++++++oooo............%%%%%%%%%%%%%%%%%%%%%%%%........    ",
"            ................%%%%%%%%%%%%%%%%%%%%oooo++++++++++++++++++++++++oooo............%%%%%%%%%%%%%%%%%%%%%%%%........    ",
"                ....................%%%%%%%%%%%%....oooo++++++++++++++++oooo    ....................%%%%%%%%%%%%........        ",
"                ....................%%%%%%%%%%%%....oooo++++++++++++++++oooo    ....................%%%%%%%%%%%%........        ",
"                ....................%%%%%%%%%%%%....oooo++++++++++++++++oooo    ....................%%%%%%%%%%%%........        ",
"                ....................%%%%%%%%%%%%....oooo++++++++++++++++oooo    ....................%%%%%%%%%%%%........        ",
"                ....XXXXXXXXXXXXXXXX................    oooooooooooooooo        ....XXXXXXXXXXXXXXXX................            ",
"                ....XXXXXXXXXXXXXXXX................    oooooooooooooooo        ....XXXXXXXXXXXXXXXX................            ",
"                ....XXXXXXXXXXXXXXXX................    oooooooooooooooo        ....XXXXXXXXXXXXXXXX................            ",
"                ....XXXXXXXXXXXXXXXX................    oooooooooooooooo        ....XXXXXXXXXXXXXXXX................            "
};