/* XPM */
static char *xpm_[] = {
/* columns rows colors chars-per-pixel */
"64 64 10 1 ",
"  c #CEA25A",
". c #E7D3A5",
"X c #AD8239",
"o c #380040",
"O c #F8E010",
"+ c #F8F828",
"@ c #F8F8F8",
"# c #F8A000",
"$ c #BD924A",
"% c #D6AA6B",
/* pixels */
"      ..XXXXXXXXXXXXooooooooooooooooooooooooooooXXXX....        ",
"      ..XXXXXXXXXXXXooooooooooooooooooooooooooooXXXX....        ",
"      ..XXXXXXXXXXooooooooooooooooooooooooooooooooXXXX..        ",
"      ..XXXXXXXXXXooooooooooooooooooooooooooooooooXXXX..        ",
"    ....XXXXXXXXooOO++++++++++++++++++++++++OOooooooXX..        ",
"    ....XXXXXXXXooOO++++++++++++++++++++++++OOooooooXX..        ",
"  ......XXXXXXooOO++@@@@@@@@@@@@@@@@@@@@@@@@++OOooooXX..        ",
"  ......XXXXXXooOO++@@@@@@@@@@@@@@@@@@@@@@@@++OOooooXX..        ",
"..........XXXXoo++@@++OO################OO++@@++ooooXX....      ",
"..........XXXXoo++@@++OO################OO++@@++ooooXX....      ",
"$$$$$$$$....XXoo++@@OO####################OO@@++oooo............",
"$$$$$$$$....XXoo++@@OO####################OO@@++oooo............",
"$$$$$$$$$$....oo++@@######++OOOO++++OO######@@++oooo............",
"$$$$$$$$$$....oo++@@######++OOOO++++OO######@@++oooo............",
"$$$$$$$$$$....oo++@@####++++OOOO++++OOOO####@@++oooo%%%%%%....$$",
"$$$$$$$$$$....oo++@@####++++OOOO++++OOOO####@@++oooo%%%%%%....$$",
"$$$$$$$$$$..%%oo++@@####OOOO++++OOOO++++####@@++oooo%%%%%%%%..$$",
"$$$$$$$$$$..%%oo++@@####OOOO++++OOOO++++####@@++oooo%%%%%%%%..$$",
"$$$$$$$$$$..%%oo++@@####OOOO++++OOOO++++####@@++oooo%%%%%%%%..$$",
"$$$$$$$$$$..%%oo++@@####OOOO++++OOOO++++####@@++oooo%%%%%%%%..$$",
"$$$$$$$$oooooooo++@@####++++OOOO++++OOOO####@@++oooooooooooooo$$",
"$$$$$$$$oooooooo++@@####++++OOOO++++OOOO####@@++oooooooooooooo$$",
"$$$$$$oooooooooo++@@####++++OOOO++++OOOO####@@++oooooooooooooooo",
"$$$$$$oooooooooo++@@####++++OOOO++++OOOO####@@++oooooooooooooooo",
"....oo##++++++++@@@@####OOOO++++OOOO++++####@@@@++++++++##oooooo",
"....oo##++++++++@@@@####OOOO++++OOOO++++####@@@@++++++++##oooooo",
"  oo##++@@@@@@@@@@@@####OOOO++++OOOO++++####@@@@@@@@@@@@++##oooo",
"  oo##++@@@@@@@@@@@@####OOOO++++OOOO++++####@@@@@@@@@@@@++##oooo",
"  oo++@@OO##############++++OOOO++++OOOO##############OO@@++oooo",
"  oo++@@OO##############++++OOOO++++OOOO##############OO@@++oooo",
"  oo++@@##############OO++++OOOO++++OOOO++##############@@++oooo",
"  oo++@@##############OO++++OOOO++++OOOO++##############@@++oooo",
"  oo++@@####++++OOOO++++OOOO++++OOOO++++OOOO++++OOOO####@@++oooo",
"  oo++@@####++++OOOO++++OOOO++++OOOO++++OOOO++++OOOO####@@++oooo",
"  oo++@@######++OOOO++++OOOO++++OOOO++++OOOO++++OO######@@++oooo",
"  oo++@@######++OOOO++++OOOO++++OOOO++++OOOO++++OO######@@++oooo",
"  oo++@@@@######++++OOOO++++OOOO++++OOOO++++OOOO######@@@@++oo  ",
"  oo++@@@@######++++OOOO++++OOOO++++OOOO++++OOOO######@@@@++oo  ",
"  ..oo++@@@@######++OOOO++++OOOO++++OOOO++++OO######@@@@++oo    ",
"  ..oo++@@@@######++OOOO++++OOOO++++OOOO++++OO######@@@@++oo    ",
"......oo++@@@@######++++OOOO++++OOOO++++OOOO######@@@@++oo      ",
"......oo++@@@@######++++OOOO++++OOOO++++OOOO######@@@@++oo      ",
"$$$$$$$$oo++@@@@######++OOOO++++OOOO++++OO######@@@@++oo........",
"$$$$$$$$oo++@@@@######++OOOO++++OOOO++++OO######@@@@++oo........",
"$$$$$$$$$$oo++@@@@######++++OOOO++++OOOO######@@@@++oo..........",
"$$$$$$$$$$oo++@@@@######++++OOOO++++OOOO######@@@@++oo..........",
"$$$$$$$$$$..oo++@@@@######++OOOO++++OO######@@@@++oo%%%%%%....$$",
"$$$$$$$$$$..oo++@@@@######++OOOO++++OO######@@@@++oo%%%%%%....$$",
"$$$$$$$$$$..%%oo++@@@@######++++OOOO######@@@@++oo%%%%%%%%%%..$$",
"$$$$$$$$$$..%%oo++@@@@######++++OOOO######@@@@++oo%%%%%%%%%%..$$",
"$$$$$$$$$$..%%%%oo++@@@@######++OO######@@@@++oo%%%%%%%%%%%%..$$",
"$$$$$$$$$$..%%%%oo++@@@@######++OO######@@@@++oo%%%%%%%%%%%%..$$",
"$$$$$$$$$$..%%%%%%oo++@@@@############@@@@++oo%%%%%%%%%%%%%%..$$",
"$$$$$$$$$$..%%%%%%oo++@@@@############@@@@++oo%%%%%%%%%%%%%%..$$",
"$$$$$$$$....%%%%%%%%oo++@@@@########@@@@++oo%%%%%%%%%%%%%%%%..$$",
"$$$$$$$$....%%%%%%%%oo++@@@@########@@@@++oo%%%%%%%%%%%%%%%%..$$",
"............%%%%%%%%%%oo++++@@@@@@@@++++oo..%%%%%%%%%%%%%%%%....",
"............%%%%%%%%%%oo++++@@@@@@@@++++oo..%%%%%%%%%%%%%%%%....",
"      ........%%%%%%%%%%oo++++++++++++oo......%%%%%%%%%%%%....  ",
"      ........%%%%%%%%%%oo++++++++++++oo......%%%%%%%%%%%%....  ",
"        ..........%%%%%%..oo++++++++oo  ..........%%%%%%....    ",
"        ..........%%%%%%..oo++++++++oo  ..........%%%%%%....    ",
"        ..XXXXXXXX........  oooooooo    ..XXXXXXXX........      "
"        ..XXXXXXXX........  oooooooo    ..XXXXXXXX........      "
};
