/* XPM */
static char *xpm_[] = {
/* columns rows colors chars-per-pixel */
"32 32 10 1 ",
"  c #CEA25A",
". c #E7D3A5",
"X c #AD8239",
"o c #380040",
"O c #F8A000",
"+ c #F8F828",
"@ c #F8F8F8",
"# c #F8E010",
"$ c #BD924A",
"% c #D6AA6B",
/* pixels */
"   .XXXXXX..       .XXXXXX..    ",
"   .XXXXXXX. oooooo.XXXXXXX.    ",
"  ..XXXXXXX.oO+++++oXXXXXXX.    ",
" ...XXXXXXXoO+@@@@@+oXXXXXX.    ",
".....XXXXXoo+@#OOO@@+oXXXXX..   ",
"$$$$..XXXXoo+@OOOOO@@+oXXX......",
"$$$$$.....oo+@OO+OOO@@+o........",
"$$$ooooooooo+@OO++OOO@@+o%%%%..$",
"$$o#++++++++@@OO##+OOO@@+o%%%%.$",
"$o#+@@@@@@@@@@OO##++OOO@@+o%%%.$",
"oo+@+#OOOOOOOOOO++##+OOO@@+o%%.$",
"oo+@#OOOOOOOOOO#++##++OOO@@+o%.$",
"oo+@OOO+##++##++##++##+OOO@@+o..",
"oo+@OO++##++##++##++##++OOO@++o ",
"oo+@OO##++##++##++##++##+OOO@++o",
"oo+@OO##++##++##++##++##++OO@++o",
"oo+@OO++##++##++##++##++##OO@++o",
"oo+@OO++##++##++##++##++#OOO@++o",
"oo+@OO##++##++##++##++##OOO@++o ",
"oo+@OOO#++##++##++##++#OOO@@+o  ",
"oo+@#OOOOOOOOOO+##++##OOO@@+o   ",
"oo+@+#OOOOOOOOOO##++#OOO@@+o....",
"oo#+@@@@@@@@@@OO++##OOO@@+o.....",
"ooo#++++++++@@OO++#OOO@@+o%%%..$",
"$ooooooooooo+@OO##OOO@@+o%%%%%.$",
"$$oooooooooo+@OO#OOO@@+o%%%%%%.$",
"$$$$$.%%%%oo+@OOOOO@@+o%%%%%%%.$",
"$$$$..%%%%oo+@#OOO@@+o%%%%%%%%.$",
"......%%%%ooO+@@@@@+o.%%%%%%%%..",
"   ....%%%oooO+++++o...%%%%%%.. ",
"    .....%ooooooooo .....%%%..  ",
"    .XXXX..ooooooo  .XXXX....   "
};
