/* XPM */
static char *xpm_[] = {
/* columns rows colors chars-per-pixel */
"32 32 10 1 ",
"  c #CEA25A",
". c #E7D3A5",
"X c #AD8239",
"o c #380040",
"O c #F8F828",
"+ c #F8F8F8",
"@ c #F8A000",
"# c #BD924A",
"$ c #F8E010",
"% c #D6AA6B",
/* pixels */
"   .XXXXXX..  oooo .XXXXXX..    ",
"   .XXXXXXX. oOOOOo.XXXXXXX.    ",
"  ..XXXXXXX.oOOOOOOoXXXXXXX.    ",
" ...XXXXXXXoOO++++OOoXXXXXX.    ",
".....XXXXXoO++@@@@++OoXXXXX..   ",
"####..XXXoO++@@@@@@++OoXXX......",
"#####...oO++@@@O$@@@++Oo........",
"#####..oO++@@@OO$$@@@++Oo%%%%..#",
"#####.oO++@@@O$$OO$@@@++Oo%%%%.#",
"#####oO++@@@OO$$OO$$@@@++Oo%%%.#",
"####oO++@@@O$$OO$$OO$@@@++Oo%%.#",
"###oO++@@@OO$$OO$$OO$$@@@++Oo%.#",
"..oO++@@@O$$OO$$OO$$OO$@@@++Oo..",
" oO++@@@OO$$OO$$OO$$OO$$@@@++Oo ",
" oO+@@@O$$OO$$OO$$OO$$OO$@@@+Ooo",
" oO+@@OO$$OO$$OO$$OO$$OO$$@@+Ooo",
" oO+@@@@@@@$OO$$OO$$O@@@@@@@+Ooo",
" oO+$@@@@@@@OO$$OO$$@@@@@@@$+Ooo",
" o@O++++++@@$$OO$$OO@@++++++O@oo",
" .o@OOOO++@@$$OO$$OO@@++OOOO@ooo",
"...oooooO+@@OO$$OO$$@@+Ooooooooo",
"####ooooO+@@OO$$OO$$@@+Oooooooo.",
"#####..oO+@@$$OO$$OO@@+Ooo......",
"#####..oO+@@$$OO$$OO@@+Ooo%%%..#",
"#####.%oO+@@OO$$OO$$@@+Ooo%%%%.#",
"#####.%oO+@@@O$$OO$@@@+Ooo%%%%.#",
"#####.%oO+$@@@@@@@@@@$+Ooo%%%%.#",
"####..%oO+O$@@@@@@@@$O+Ooo%%%%.#",
"......%o$O++++++++++++O$oo%%%%..",
"   ....%o$OOOOOOOOOOOO$ooo%%%.. ",
"    .....oooooooooooooooo%%%..  ",
"    .XXXX.ooooooooooooooX....   "
};
