/* XPM */
static char *xpm_[] = {
/* columns rows colors chars-per-pixel */
"8 8 17 1 ",
"  c #6B4918",
". c #A59242",
"X c #8C6118",
"O c #8C7108",
"+ c #040204",
"@ c #842A0C",
"# c #D4821C",
"$ c #FCD22C",
"% c #FCEA3C",
"& c #FCF29C",
"* c #F4AA1C",
"= c #D4F2FC",
"- c #CCEA0C",
"; c #FCC204",
": c #AC4A0C",
", c #FC7214",
"1 c #DC729C",
/* pixels */
".X@&#X. ",
" %=--%+X",
"@=--%;*.",
"*--%;,$.",
":-%;,1* ",
" #;,1*+X",
"O+:##+ .",
"X O.X O."
};
