/* XPM */
static char *xpm_[] = {
"128 128 20 1 ",
"  c #6B4918",
". c #A59242",
"X c #8C6118",
"o c #BDA252",
"O c #8C7108",
"+ c #040204",
"@ c #842A0C",
"# c #D4821C",
"$ c #FCD22C",
"% c #FCEA3C",
"& c #FCF29C",
"* c #F4AA1C",
"= c #D4F2FC",
"- c #CCEA0C",
"; c #FCC204",
": c #AC4A0C",
"> c #2452CC",
", c #FC7214",
"< c #FC0AA4",
"1 c #DC729C",
"        ............XXXXXXXXXXXXXXXX....oooooooo....XXXX                ............XXXXXXXXXXXXXXXX....oooooooo....XXXX        ",
"        ............XXXXXXXXXXXXXXXX....oooooooo....XXXX                ............XXXXXXXXXXXXXXXX....oooooooo....XXXX        ",
"        ............XXXXXXXXXXXXXXXX....oooooooo....XXXX                ............XXXXXXXXXXXXXXXX....oooooooo....XXXX        ",
"        ............XXXXXXXXXXXXXXXX....oooooooo....XXXX                ............XXXXXXXXXXXXXXXX....oooooooo....XXXX        ",
"XXXX....oooooooo........XXXXOOOO....oooooooo....oooo....XXXXXXXXXXXX....oooooooo........XXXXOOOO....oooooooo....oooo....XXXXXXXX",
"XXXX....oooooooo........XXXXOOOO....oooooooo....oooo....XXXXXXXXXXXX....oooooooo........XXXXOOOO....oooooooo....oooo....XXXXXXXX",
"XXXX....oooooooo........XXXXOOOO....oooooooo....oooo....XXXXXXXXXXXX....oooooooo........XXXXOOOO....oooooooo....oooo....XXXXXXXX",
"XXXX....oooooooo........XXXXOOOO....oooooooo....oooo....XXXXXXXXXXXX....oooooooo........XXXXOOOO....oooooooo....oooo....XXXXXXXX",
"oooooooo................    XXXXoooooooooooo++++++++++++++++++++++++++++++++++++++++....    XXXXoooooooooooo................XXXX",
"oooooooo................    XXXXoooooooooooo++++++++++++++++++++++++++++++++++++++++....    XXXXoooooooooooo................XXXX",
"oooooooo................    XXXXoooooooooooo++++++++++++++++++++++++++++++++++++++++....    XXXXoooooooooooo................XXXX",
"oooooooo................    XXXXoooooooooooo++++++++++++++++++++++++++++++++++++++++....    XXXXoooooooooooo................XXXX",
"oooooooooooo............    XXXX....++++++++@@@@####$$$$%%%%&&&&&&&&%%%%$$$$####@@@@++++++++XXXX............................    ",
"oooooooooooo............    XXXX....++++++++@@@@####$$$$%%%%&&&&&&&&%%%%$$$$####@@@@++++++++XXXX............................    ",
"oooooooooooo............    XXXX....++++++++@@@@####$$$$%%%%&&&&&&&&%%%%$$$$####@@@@++++++++XXXX............................    ",
"oooooooooooo............    XXXX....++++++++@@@@####$$$$%%%%&&&&&&&&%%%%$$$$####@@@@++++++++XXXX............................    ",
"oooo....................    ++++++++@@@@****$$$$%%%%%%%%%%%%%%%%%%%%%%%%%%%%%%%%$$$$****@@@@++++++++oooooooo....oooooooo....    ",
"oooo....................    ++++++++@@@@****$$$$%%%%%%%%%%%%%%%%%%%%%%%%%%%%%%%%$$$$****@@@@++++++++oooooooo....oooooooo....    ",
"oooo....................    ++++++++@@@@****$$$$%%%%%%%%%%%%%%%%%%%%%%%%%%%%%%%%$$$$****@@@@++++++++oooooooo....oooooooo....    ",
"oooo....................    ++++++++@@@@****$$$$%%%%%%%%%%%%%%%%%%%%%%%%%%%%%%%%$$$$****@@@@++++++++oooooooo....oooooooo....    ",
"oooooooo............    ++++@@@@####%%%%%%%%%%%%$$$$****################****$$$$%%%%%%%%%%%%####@@@@++++oooooooo............    ",
"oooooooo............    ++++@@@@####%%%%%%%%%%%%$$$$****################****$$$$%%%%%%%%%%%%####@@@@++++oooooooo............    ",
"oooooooo............    ++++@@@@####%%%%%%%%%%%%$$$$****################****$$$$%%%%%%%%%%%%####@@@@++++oooooooo............    ",
"oooooooo............    ++++@@@@####%%%%%%%%%%%%$$$$****################****$$$$%%%%%%%%%%%%####@@@@++++oooooooo............    ",
"................    ++++@@@@****%%%%%%%%$$$$$$$$================----------------$$$$$$$$%%%%%%%%****@@@@++++............        ",
"................    ++++@@@@****%%%%%%%%$$$$$$$$================----------------$$$$$$$$%%%%%%%%****@@@@++++............        ",
"................    ++++@@@@****%%%%%%%%$$$$$$$$================----------------$$$$$$$$%%%%%%%%****@@@@++++............        ",
"................    ++++@@@@****%%%%%%%%$$$$$$$$================----------------$$$$$$$$%%%%%%%%****@@@@++++............        ",
"XXXX........    ++++@@@@****%%%%%%%%$$$$====================--------------------%%%%%%%%%%%%%%%%%%%%****@@@@++++            XXXX",
"XXXX........    ++++@@@@****%%%%%%%%$$$$====================--------------------%%%%%%%%%%%%%%%%%%%%****@@@@++++            XXXX",
"XXXX........    ++++@@@@****%%%%%%%%$$$$====================--------------------%%%%%%%%%%%%%%%%%%%%****@@@@++++            XXXX",
"XXXX........    ++++@@@@****%%%%%%%%$$$$====================--------------------%%%%%%%%%%%%%%%%%%%%****@@@@++++            XXXX",
"OOOO            ++++####$$$$$$$$$$$$====================--------------------%%%%%%%%%%%%%%%%%%%%$$$$$$$$####++++............XXXX",
"OOOO            ++++####$$$$$$$$$$$$====================--------------------%%%%%%%%%%%%%%%%%%%%$$$$$$$$####++++............XXXX",
"OOOO            ++++####$$$$$$$$$$$$====================--------------------%%%%%%%%%%%%%%%%%%%%$$$$$$$$####++++............XXXX",
"OOOO            ++++####$$$$$$$$$$$$====================--------------------%%%%%%%%%%%%%%%%%%%%$$$$$$$$####++++............XXXX",
"XXXXOOOOOOOO++++@@@@$$$$$$$$$$$$================++++++++------------++++++++%%%%%%%%%%%%%%%%;;;;$$$$$$$$$$$$@@@@++++oooooooo....",
"XXXXOOOOOOOO++++@@@@$$$$$$$$$$$$================++++++++------------++++++++%%%%%%%%%%%%%%%%;;;;$$$$$$$$$$$$@@@@++++oooooooo....",
"XXXXOOOOOOOO++++@@@@$$$$$$$$$$$$================++++++++------------++++++++%%%%%%%%%%%%%%%%;;;;$$$$$$$$$$$$@@@@++++oooooooo....",
"XXXXOOOOOOOO++++@@@@$$$$$$$$$$$$================++++++++------------++++++++%%%%%%%%%%%%%%%%;;;;$$$$$$$$$$$$@@@@++++oooooooo....",
"....XXXXOOOO++++####$$$$$$$$====================&&&&++++------------&&&&++++%%%%%%%%%%%%;;;;;;;;;;;;$$$$$$$$####++++............",
"....XXXXOOOO++++####$$$$$$$$====================&&&&++++------------&&&&++++%%%%%%%%%%%%;;;;;;;;;;;;$$$$$$$$####++++............",
"....XXXXOOOO++++####$$$$$$$$====================&&&&++++------------&&&&++++%%%%%%%%%%%%;;;;;;;;;;;;$$$$$$$$####++++............",
"....XXXXOOOO++++####$$$$$$$$====================&&&&++++------------&&&&++++%%%%%%%%%%%%;;;;;;;;;;;;$$$$$$$$####++++............",
"........++++@@@@****$$$$$$$$================----@@@@++++--------%%%%@@@@++++%%%%%%%%;;;;;;;;;;;;;;;;$$$$$$$$****@@@@++++........",
"........++++@@@@****$$$$$$$$================----@@@@++++--------%%%%@@@@++++%%%%%%%%;;;;;;;;;;;;;;;;$$$$$$$$****@@@@++++........",
"........++++@@@@****$$$$$$$$================----@@@@++++--------%%%%@@@@++++%%%%%%%%;;;;;;;;;;;;;;;;$$$$$$$$****@@@@++++........",
"........++++@@@@****$$$$$$$$================----@@@@++++--------%%%%@@@@++++%%%%%%%%;;;;;;;;;;;;;;;;$$$$$$$$****@@@@++++........",
"........++++::::$$$$$$$$================-------->>>>++++----%%%%%%%%>>>>++++%%%%;;;;;;;;;;;;;;;;;;;;****$$$$$$$$::::++++oooooooo",
"........++++::::$$$$$$$$================-------->>>>++++----%%%%%%%%>>>>++++%%%%;;;;;;;;;;;;;;;;;;;;****$$$$$$$$::::++++oooooooo",
"........++++::::$$$$$$$$================-------->>>>++++----%%%%%%%%>>>>++++%%%%;;;;;;;;;;;;;;;;;;;;****$$$$$$$$::::++++oooooooo",
"........++++::::$$$$$$$$================-------->>>>++++----%%%%%%%%>>>>++++%%%%;;;;;;;;;;;;;;;;;;;;****$$$$$$$$::::++++oooooooo",
"........++++####$$$$$$$$============------------++++++++%%%%%%%%%%%%++++++++;;;;;;;;;;;;;;;;;;;;****,,,,$$$$$$$$####++++........",
"........++++####$$$$$$$$============------------++++++++%%%%%%%%%%%%++++++++;;;;;;;;;;;;;;;;;;;;****,,,,$$$$$$$$####++++........",
"........++++####$$$$$$$$============------------++++++++%%%%%%%%%%%%++++++++;;;;;;;;;;;;;;;;;;;;****,,,,$$$$$$$$####++++........",
"........++++####$$$$$$$$============------------++++++++%%%%%%%%%%%%++++++++;;;;;;;;;;;;;;;;;;;;****,,,,$$$$$$$$####++++........",
"........++++****$$$$$$$$========<<<<<<<<<<<<--------%%%%%%%%%%%%%%%%%%%%;;;;;;;;<<<<<<<<<<<<****,,,,,,,,$$$$$$$$****++++oooooooo",
"........++++****$$$$$$$$========<<<<<<<<<<<<--------%%%%%%%%%%%%%%%%%%%%;;;;;;;;<<<<<<<<<<<<****,,,,,,,,$$$$$$$$****++++oooooooo",
"........++++****$$$$$$$$========<<<<<<<<<<<<--------%%%%%%%%%%%%%%%%%%%%;;;;;;;;<<<<<<<<<<<<****,,,,,,,,$$$$$$$$****++++oooooooo",
"........++++****$$$$$$$$========<<<<<<<<<<<<--------%%%%%%%%%%%%%%%%%%%%;;;;;;;;<<<<<<<<<<<<****,,,,,,,,$$$$$$$$****++++oooooooo",
"....    ++++****$$$$$$$$====----<<<<<<<<<<<<----%%%%++++%%%%%%%%%%%%++++;;;;;;;;<<<<<<<<<<<<,,,,,,,,,,,,$$$$$$$$****++++........",
"....    ++++****$$$$$$$$====----<<<<<<<<<<<<----%%%%++++%%%%%%%%%%%%++++;;;;;;;;<<<<<<<<<<<<,,,,,,,,,,,,$$$$$$$$****++++........",
"....    ++++****$$$$$$$$====----<<<<<<<<<<<<----%%%%++++%%%%%%%%%%%%++++;;;;;;;;<<<<<<<<<<<<,,,,,,,,,,,,$$$$$$$$****++++........",
"....    ++++****$$$$$$$$====----<<<<<<<<<<<<----%%%%++++%%%%%%%%%%%%++++;;;;;;;;<<<<<<<<<<<<,,,,,,,,,,,,$$$$$$$$****++++........",
"        ++++****$$$$$$$$--------------------%%%%%%%%%%%%++++++++++++;;;;;;;;;;;;;;;;****,,,,,,,,,,,,,,,,$$$$$$$$****++++        ",
"        ++++****$$$$$$$$--------------------%%%%%%%%%%%%++++++++++++;;;;;;;;;;;;;;;;****,,,,,,,,,,,,,,,,$$$$$$$$****++++        ",
"        ++++****$$$$$$$$--------------------%%%%%%%%%%%%++++++++++++;;;;;;;;;;;;;;;;****,,,,,,,,,,,,,,,,$$$$$$$$****++++        ",
"        ++++****$$$$$$$$--------------------%%%%%%%%%%%%++++++++++++;;;;;;;;;;;;;;;;****,,,,,,,,,,,,,,,,$$$$$$$$****++++        ",
"XXXX....++++####$$$$$$$$----------------%%%%%%%%%%%%%%%%%%%%;;;;;;;;;;;;;;;;;;;;****,,,,,,,,,,,,,,,,1111$$$$$$$$####++++XXXXXXXX",
"XXXX....++++####$$$$$$$$----------------%%%%%%%%%%%%%%%%%%%%;;;;;;;;;;;;;;;;;;;;****,,,,,,,,,,,,,,,,1111$$$$$$$$####++++XXXXXXXX",
"XXXX....++++####$$$$$$$$----------------%%%%%%%%%%%%%%%%%%%%;;;;;;;;;;;;;;;;;;;;****,,,,,,,,,,,,,,,,1111$$$$$$$$####++++XXXXXXXX",
"XXXX....++++####$$$$$$$$----------------%%%%%%%%%%%%%%%%%%%%;;;;;;;;;;;;;;;;;;;;****,,,,,,,,,,,,,,,,1111$$$$$$$$####++++XXXXXXXX",
"oooooooo++++####********------------%%%%%%%%%%%%%%%%%%%%;;;;;;;;;;;;;;;;;;;;****,,,,,,,,,,,,,,,,11111111********####++++....XXXX",
"oooooooo++++####********------------%%%%%%%%%%%%%%%%%%%%;;;;;;;;;;;;;;;;;;;;****,,,,,,,,,,,,,,,,11111111********####++++....XXXX",
"oooooooo++++####********------------%%%%%%%%%%%%%%%%%%%%;;;;;;;;;;;;;;;;;;;;****,,,,,,,,,,,,,,,,11111111********####++++....XXXX",
"oooooooo++++####********------------%%%%%%%%%%%%%%%%%%%%;;;;;;;;;;;;;;;;;;;;****,,,,,,,,,,,,,,,,11111111********####++++....XXXX",
"oooooooo++++::::********--------%%%%%%%%%%%%%%%%%%%%;;;;;;;;;;;;;;;;;;;;****,,,,,,,,,,,,,,,,111111111111********::::++++....    ",
"oooooooo++++::::********--------%%%%%%%%%%%%%%%%%%%%;;;;;;;;;;;;;;;;;;;;****,,,,,,,,,,,,,,,,111111111111********::::++++....    ",
"oooooooo++++::::********--------%%%%%%%%%%%%%%%%%%%%;;;;;;;;;;;;;;;;;;;;****,,,,,,,,,,,,,,,,111111111111********::::++++....    ",
"oooooooo++++::::********--------%%%%%%%%%%%%%%%%%%%%;;;;;;;;;;;;;;;;;;;;****,,,,,,,,,,,,,,,,111111111111********::::++++....    ",
"oooo....++++@@@@########****%%%%%%%%%%%%%%%%%%%%;;;;;;;;;;;;;;;;;;;;****,,,,,,,,,,,,,,,,111111111111****########@@@@++++....    ",
"oooo....++++@@@@########****%%%%%%%%%%%%%%%%%%%%;;;;;;;;;;;;;;;;;;;;****,,,,,,,,,,,,,,,,111111111111****########@@@@++++....    ",
"oooo....++++@@@@########****%%%%%%%%%%%%%%%%%%%%;;;;;;;;;;;;;;;;;;;;****,,,,,,,,,,,,,,,,111111111111****########@@@@++++....    ",
"oooo....++++@@@@########****%%%%%%%%%%%%%%%%%%%%;;;;;;;;;;;;;;;;;;;;****,,,,,,,,,,,,,,,,111111111111****########@@@@++++....    ",
"oooooooo....++++::::########%%%%%%%%%%%%%%%%;;;;;;;;;;;;;;;;;;;;****,,,,,,,,,,,,,,,,1111111111111111########::::++++........    ",
"oooooooo....++++::::########%%%%%%%%%%%%%%%%;;;;;;;;;;;;;;;;;;;;****,,,,,,,,,,,,,,,,1111111111111111########::::++++........    ",
"oooooooo....++++::::########%%%%%%%%%%%%%%%%;;;;;;;;;;;;;;;;;;;;****,,,,,,,,,,,,,,,,1111111111111111########::::++++........    ",
"oooooooo....++++::::########%%%%%%%%%%%%%%%%;;;;;;;;;;;;;;;;;;;;****,,,,,,,,,,,,,,,,1111111111111111########::::++++........    ",
"............++++@@@@########****%%%%%%%%;;;;;;;;;;;;;;;;;;;;****,,,,,,,,,,,,,,,,1111111111111111****########@@@@++++....        ",
"............++++@@@@########****%%%%%%%%;;;;;;;;;;;;;;;;;;;;****,,,,,,,,,,,,,,,,1111111111111111****########@@@@++++....        ",
"............++++@@@@########****%%%%%%%%;;;;;;;;;;;;;;;;;;;;****,,,,,,,,,,,,,,,,1111111111111111****########@@@@++++....        ",
"............++++@@@@########****%%%%%%%%;;;;;;;;;;;;;;;;;;;;****,,,,,,,,,,,,,,,,1111111111111111****########@@@@++++....        ",
"XXXX........    ++++::::########****;;;;;;;;;;;;;;;;;;;;****,,,,,,,,,,,,,,,,1111111111111111****########::::++++            XXXX",
"XXXX........    ++++::::########****;;;;;;;;;;;;;;;;;;;;****,,,,,,,,,,,,,,,,1111111111111111****########::::++++            XXXX",
"XXXX........    ++++::::########****;;;;;;;;;;;;;;;;;;;;****,,,,,,,,,,,,,,,,1111111111111111****########::::++++            XXXX",
"XXXX........    ++++::::########****;;;;;;;;;;;;;;;;;;;;****,,,,,,,,,,,,,,,,1111111111111111****########::::++++            XXXX",
"OOOO            ++++@@@@::::########****;;;;;;;;;;;;****,,,,,,,,,,,,,,,,1111111111111111****########::::@@@@++++............XXXX",
"OOOO            ++++@@@@::::########****;;;;;;;;;;;;****,,,,,,,,,,,,,,,,1111111111111111****########::::@@@@++++............XXXX",
"OOOO            ++++@@@@::::########****;;;;;;;;;;;;****,,,,,,,,,,,,,,,,1111111111111111****########::::@@@@++++............XXXX",
"OOOO            ++++@@@@::::########****;;;;;;;;;;;;****,,,,,,,,,,,,,,,,1111111111111111****########::::@@@@++++............XXXX",
"XXXXOOOOOOOOOOOOOOOO++++@@@@::::########$$$$$$$$****,,,,,,,,,,,,,,,,11111111****$$$$$$$$########::::@@@@++++    oooooooooooo....",
"XXXXOOOOOOOOOOOOOOOO++++@@@@::::########$$$$$$$$****,,,,,,,,,,,,,,,,11111111****$$$$$$$$########::::@@@@++++    oooooooooooo....",
"XXXXOOOOOOOOOOOOOOOO++++@@@@::::########$$$$$$$$****,,,,,,,,,,,,,,,,11111111****$$$$$$$$########::::@@@@++++    oooooooooooo....",
"XXXXOOOOOOOOOOOOOOOO++++@@@@::::########$$$$$$$$****,,,,,,,,,,,,,,,,11111111****$$$$$$$$########::::@@@@++++    oooooooooooo....",
"....XXXXOOOOOOOO....oooo++++@@@@::::::::########$$$$$$$$$$$$$$$$$$$$$$$$$$$$$$$$########::::::::@@@@++++....    ................",
"....XXXXOOOOOOOO....oooo++++@@@@::::::::########$$$$$$$$$$$$$$$$$$$$$$$$$$$$$$$$########::::::::@@@@++++....    ................",
"....XXXXOOOOOOOO....oooo++++@@@@::::::::########$$$$$$$$$$$$$$$$$$$$$$$$$$$$$$$$########::::::::@@@@++++....    ................",
"....XXXXOOOOOOOO....oooo++++@@@@::::::::########$$$$$$$$$$$$$$$$$$$$$$$$$$$$$$$$########::::::::@@@@++++....    ................",
"........XXXXOOOOoooooooooooo++++++++@@@@::::::::################################::::::::@@@@++++++++........    oooooooo........",
"........XXXXOOOOoooooooooooo++++++++@@@@::::::::################################::::::::@@@@++++++++........    oooooooo........",
"........XXXXOOOOoooooooooooo++++++++@@@@::::::::################################::::::::@@@@++++++++........    oooooooo........",
"........XXXXOOOOoooooooooooo++++++++@@@@::::::::################################::::::::@@@@++++++++........    oooooooo........",
"........    XXXX....oooo............++++++++@@@@@@@@@@@@::::::::::::::::@@@@@@@@@@@@++++++++............        oooooooooooooooo",
"........    XXXX....oooo............++++++++@@@@@@@@@@@@::::::::::::::::@@@@@@@@@@@@++++++++............        oooooooooooooooo",
"........    XXXX....oooo............++++++++@@@@@@@@@@@@::::::::::::::::@@@@@@@@@@@@++++++++............        oooooooooooooooo",
"........    XXXX....oooo............++++++++@@@@@@@@@@@@::::::::::::::::@@@@@@@@@@@@++++++++............        oooooooooooooooo",
"........    XXXX....oooooooo........        ++++++++++++++++++++++++++++++++++++++++oooooooo........        XXXX................",
"........    XXXX....oooooooo........        ++++++++++++++++++++++++++++++++++++++++oooooooo........        XXXX................",
"........    XXXX....oooooooo........        ++++++++++++++++++++++++++++++++++++++++oooooooo........        XXXX................",
"........    XXXX....oooooooo........        ++++++++++++++++++++++++++++++++++++++++oooooooo........        XXXX................",
"........    XXXXXXXX............        XXXXOOOO    ....oooooooo........    XXXXXXXX............        XXXXOOOO    ....oooooooo",
"........    XXXXXXXX............        XXXXOOOO    ....oooooooo........    XXXXXXXX............        XXXXOOOO    ....oooooooo",
"........    XXXXXXXX............        XXXXOOOO    ....oooooooo........    XXXXXXXX............        XXXXOOOO    ....oooooooo",
"........    XXXXXXXX............        XXXXOOOO    ....oooooooo........    XXXXXXXX............        XXXXOOOO    ....oooooooo",
"....        XXXXOOOO                XXXXOOOOOOOOXXXX    ............        XXXXOOOO                XXXXOOOOOOOOXXXX    ........",
"....        XXXXOOOO                XXXXOOOOOOOOXXXX    ............        XXXXOOOO                XXXXOOOOOOOOXXXX    ........",
"....        XXXXOOOO                XXXXOOOOOOOOXXXX    ............        XXXXOOOO                XXXXOOOOOOOOXXXX    ........",
"....        XXXXOOOO                XXXXOOOOOOOOXXXX    ............        XXXXOOOO                XXXXOOOOOOOOXXXX    ........"
};
