/* XPM */
static char *xpm_[] = {
/* columns rows colors chars-per-pixel */
"16 16 19 1 ",
"  c #6B4918",
". c #A59242",
"X c #8C6118",
"o c #BDA252",
"O c #8C7108",
"+ c #040204",
"@ c #842A0C",
"# c #D4821C",
"$ c #FCD22C",
"% c #FCEA3C",
"& c #FCF29C",
"* c #F4AA1C",
"= c #D4F2FC",
"- c #CCEA0C",
"; c #FCC204",
": c #AC4A0C",
", c #FC7214",
"< c #FC0AA4",
"1 c #DC729C",
/* pixels */
".o.Oo..X.o.Oo..X",
"o..X+@$&%#+X... ",
"o. @%%*##$%#+o. ",
". @%$==---%%*+ X",
"O+$$==+-+%%;$@o.",
".@$==-+-@%;;$*+.",
".#$=--+%+;;;,$+.",
" *$-<-+%+;<,,$+.",
".#$--%%;;;,,1$+X",
"o:*-%%;;;,,11*+ ",
"o+#%%;;;,,11#:. ",
". :#;;;,,11*#+ X",
"OO+:#$,,1*$#@ o.",
".Oo+@:####:+. o.",
".Xo. +++++o. X..",
" X  XO . X  XO ."
};
