/* XPM */
static char *xpm_[] = {
/* columns rows colors chars-per-pixel */
"32 32 12 1 ",
"  c #6B4918",
". c #A59242",
"X c #8C6118",
"o c #BDA252",
"O c #140A34",
"+ c #8C7108",
"@ c #FCFAFC",
"# c #747294",
"$ c #ACAABC",
"% c #E4E2E4",
"& c #3C3264",
"* c #4C4A74",
/* pixels */
"  ...XXXX.oo.X O  ...XXXX.oo.X  ",
"X.oo..X+.oo.o.O@O.oo..X+.oo.o.XX",
"ooOO.. Xooo...O@Oo.... XoooOO..X",
"ooO@OO X.....O#@#Oo... X.OO@O.. ",
"o..O@$OO.oo.oO$%$O.... OO$@Ooo. ",
"oo.O$@$#OOooO#%%%#O..OO#$@$O... ",
"....O$@$$#OOOOOOOOOOO#$$@$O...  ",
"X.. O#$@$$#O&#####&O#$$@$#O    X",
"+   XO#$@$O*#$$$$$#*O$@$#OXX...X",
"X++++O*#$O*#$$%%%$$#*O$#*O. ooo.",
".X++.oO#O&*#$$%%%$$#*&O#O.. ....",
"..X+ooOO&***#$$$$$#***&OO.. oo..",
".. X.oOO&**$@$###$@$**&OO.  oooo",
".. X.OO&**$@@@$*$@@@$**&OO X....",
".. OO#O&**@$OOO*OOO$@**&O#OO .oo",
".OO#$$O&**@OO@O*O@OO@**&O$$#OO..",
"O@@%%$O&**%OOOO*OOOO%**&O$%%@@O ",
"XOO*##O&**%#OOO*OOO#%**&O##*OOXX",
"oo.OO*O&*&$%%%$*$%%%$&*&O*OO...X",
"ooo..OOO*&*$%$*&*$%$*&*OOO..... ",
"o.....OO*&&&&&&&&&&&&&*OOoo.oo. ",
"oo... OO&*&&&&&&&&&&&*&OO.oo... ",
".... O#$O&*&&&&&&&&&*&O$#O....  ",
"X..  O#$%O&**&&&&&**&O%$#O     X",
"+   O#$%$$OO&*###*&OO$$%$#OX...X",
"X+++O$%$$#OOOOOOOOOOO#$$%$O ooo.",
".X+O#%$#OO. O#####O+.OO#$%#O....",
"..XO%$OO... oO$%$OX+oooOO$%Ooo..",
"..O%OO....  oO#%#O X.o...OO%Oooo",
"..OO.oo..  X..O$O. X.oo..  OO...",
".. XX...  X+ .O#O. XX...  X+ .oo",
".  X+    X++X .O.  X+    X++X .."
};
