/* XPM */
static char *xpm_[] = {
/* columns rows colors chars-per-pixel */
"16 16 12 1 ",
"  c #6B4918",
". c #A59242",
"X c #8C6118",
"o c #BDA252",
"O c #140A34",
"+ c #8C7108",
"@ c #FCFAFC",
"# c #747294",
"$ c #ACAABC",
"% c #E4E2E4",
"& c #3C3264",
"* c #4C4A74",
/* pixels */
".o.+o..@.o.+o..X",
"o@OX..O@O..XO@. ",
"oO@#Oo#%#.O#@O. ",
". #@$O###O$@#  X",
"++O#O#$%$#O#O o.",
".+oO**$$$**O. o.",
".XO&*@@*@@*&OX..",
"O#$&*O@*@O*&$#O.",
"O*#&*#O*O#*&#*OX",
"o.OO&$$&$$&OO.. ",
"o. O*&&&&&*O.o. ",
". O$O*&&&*O$O  X",
"++$$#OOOOO#$$ o.",
".O$O. O%O+oO$Oo.",
".Oo. X.$.Xo. O..",
" X  X+ O X  X+ ."
};
