/* XPM */
static char *xpm_[] = {
/* columns rows colors chars-per-pixel */
"16 16 11 1 ",
"  c #6B4918",
". c #A59242",
"X c #8C6118",
"o c #BDA252",
"O c #8C7108",
"+ c #F8F028",
"@ c #F8F8F8",
"# c #F8F870",
"$ c #F8C000",
"% c #F8D800",
"& c #F8B000",
/* pixels */
".o.Oo..@+o.Oo..X",
"o..X..@#++.X... ",
"o. X.++@@@ X.o. ",
". X.X@@@@%+.X  X",
"OO.@@%@@@#@@+ o.",
".@$+@@@@@@@#%$@.",
"@$@@@@@@@@@@@#&.",
" &%@@@@@@@@@#&@.",
".o&+@@@@@@@#&@.X",
"o.+$@@@@@@@+@.. ",
"o.+%@@@@@@@@@o. ",
". @#@@@+#@@@%  X",
"OO@@@#&@&+@@% o.",
".O@++&@.+@$#& o.",
".X+&@+...X@&@X..",
" X  XO . X  XO ."
};
