/* XPM */
static char *xpm_[] = {
/* columns rows colors chars-per-pixel */
"8 8 10 1 ",
"  c #6B4918",
". c #A59242",
"X c #8C6118",
"O c #8C7108",
"+ c #F8F028",
"@ c #F8F8F8",
"# c #F8F870",
"$ c #F8C000",
"% c #F8D800",
"& c #F8B000",
/* pixels */
".X.#+X. ",
" .@@%. X",
"@+@@@#$.",
"&@@@@@&.",
".$@@@+. ",
" #@+@@ X",
"O+&.@# .",
"X O.X O."
};
