/* XPM */
static char *xpm_[] = {
/* columns rows colors chars-per-pixel */
"32 32 11 1 ",
"  c #6B4918",
". c #A59242",
"X c #8C6118",
"o c #BDA252",
"O c #8C7108",
"+ c #F8F028",
"@ c #F8F8F8",
"# c #F8F870",
"$ c #F8C000",
"% c #F8D800",
"& c #F8B000",
/* pixels */
"  ...XXXX.oo.X    ...XXXX.oo.X  ",
"X.oo..XO.oo.o.+@@+oo..XO.oo.o.XX",
"oo.... Xooo..+@++@+... Xooo....X",
"ooo... X....+@+##+@+.. X....... ",
"o..... X.oo.@+#@@#+@.. X.oo.oo. ",
"oo...  XX.o+@+@@@@+@+  XX.oo... ",
"....  XOOX.@$#@@@@#$@ XOOX....  ",
"X..  X...X+@%@@@@@@%@+...X     X",
"O   X.oo..@$+@@@@@@+$@oo..XX...X",
"XOOOO.+@@@@%#@@@@@@#%@@@@+. ooo.",
".XO+@@@$$%%#@@@@@@@@#%%$$@@@+...",
"..@@$$%+#@@@@@@@@@@@@@@#+%$$@@..",
".@&%#@@@@@@@@@@@@@@@@@@@@@@#%&@o",
".@&$#@@@@@@@@@@@@@@@@@@@@@@#$&@.",
".#@&%#@@@@@@@@@@@@@@@@@@@@#%&@#o",
". @&&%#@@@@@@@@@@@@@@@@@@#%&&@..",
"  .@&&%#@@@@@@@@@@@@@@@@#%&&@X  ",
"X.oo@&&+#@@@@@@@@@@@@@@#+&&@o.XX",
"oo...@&$+@@@@@@@@@@@@@@+$&@....X",
"ooo..+@$+@@@@@@@@@@@@@@+$@+.... ",
"o.....@%#@@@@@@@@@@@@@@#%@o.oo. ",
"oo...+@%@@@@@@@@@@@@@@@@%@+o... ",
".... #@+@@@@@@@##@@@@@@@+@#...  ",
"X..  @%#@@@@@@#++#@@@@@@#%@    X",
"O   X@%@@@@@#+$&&$+#@@@@@%@X...X",
"XOOOO@%@@@@#+&&@@&&+#@@@@%@ ooo.",
".XOO.@$#@@#+&&@++@&&+#@@#$@ ....",
"..XOo@&+#+$&@@+..+@@&$+#+&@ oo..",
".. X.@&$$&&@#ooo.. #@&&$$&@ oooo",
".. X.+@&&@@+...... X+@@&&@+X....",
".. XX.+@@+XO .oo.. XX.+@@+XO .oo",
".  XO    XOOX ...  XO    XOOX .."
};
