/* XPM */
static char *xpm_[] = {
/* columns rows colors chars-per-pixel */
"16 16 5 1 ",
"  c #6B4918",
". c #A59242",
"X c #8C6118",
"o c #BDA252",
"O c #8C7108",
/* pixels */
".o.Oo..X.o.Oo..X",
"o..X... o..X... ",
"o. X.o. o. X.o. ",
". X.X  X. X.X  X",
"OO.o. o.OO.o. o.",
".Ooo. o..Ooo. o.",
".Xo. X...Xo. X..",
" X  XO . X  XO .",
".o.Oo..X.o.Oo..X",
"o..X... o..X... ",
"o. X.o. o. X.o. ",
". X.X  X. X.X  X",
"OO.o. o.OO.o. o.",
".Ooo. o..Ooo. o.",
".Xo. X...Xo. X..",
" X  XO . X  XO ."
};
