/* XPM */
static char *xpm_[] = {
"8 8 10 1 ",
"  c #6B4918",
". c #A59242",
"X c #8C6118",
"o c #BDA252",
"O c #8C7108",
"+ c #641214",
"@ c #B4223C",
"# c #DC427C",
"$ c #FC6ABC",
"& c #FC9ADC",
".X. .X. ",
" .+$+. X",
"O+$&&+ .",
"X+$&&@O.",
".+$&&@. ",
" ++$#. X",
"Oo +Oo .",
"X O.X O."
};
