/* XPM */
static char *xpm_[] = {
"16 16 12 1 ",
"  c #6B4918",
". c #A59242",
"X c #8C6118",
"o c #BDA252",
"O c #8C7108",
"+ c #641214",
"@ c #B4223C",
"# c #DC427C",
"$ c #FC6ABC",
"% c #7C0A24",
"& c #FC9ADC",
"* c #FCFAFC",
".o.Oo..X.o.Oo..X",
"o..X... o..X... ",
"o. X.o.@#+ X.o. ",
". X.X +$$#++X  X",
"OO.o+#$$##+%. o.",
".Ooo#&&&&$#+. o.",
".Xo+@*&&&&$@ X..",
" X +$&&&&&$#XO .",
".o.+@*&&&&$#o..X",
"o..+$&&&&$$+... ",
"o. X@&&&$$@%.o. ",
". X.X+$$$#%%X  X",
"OO.o. +$$@.o. o.",
".Ooo. o++Ooo. o.",
".Xo. X...Xo. X..",
" X  XO . X  XO ."
};
