/* XPM */
static char *xpm_[] = {
"32 32 12 1 ",
"  c #6B4918",
". c #A59242",
"X c #8C6118",
"o c #BDA252",
"O c #8C7108",
"+ c #641214",
"@ c #7C0A24",
"# c #B4223C",
"$ c #DC427C",
"% c #FC6ABC",
"& c #FC9ADC",
"* c #FCFAFC",
"  ...XXXX.oo.X    ...XXXX.oo.X  ",
"X.oo..XO.oo.o.XXX.oo..XO.oo.o.XX",
"oo.... Xooo....Xoo.... Xooo....X",
"ooo... X....... ooo... X....... ",
"o..... X.oo.oo. o..... X.oo.oo. ",
"oo...  XX.oo... oo...  XX.oo... ",
"....  XOOX....  ....  XOOX....  ",
"X..  X..++++++++++++++++.X     X",
"O   X.o+@@@++#$$$$#++@@@+.XX...X",
"XOOOO.o+@@+#$$%%%%$$#+@@+.. ooo.",
".XOO.oo+@+#$%%%%%%%%$#+@+.. ....",
"..XOoo+++#$%%%%%%%%%%$#+++. oo..",
".. X.+#$$$%%%&&&&&&%%%$$$#+ oooo",
".. X+#$$$$%%&&&&&&&&%%$$$$#+....",
".. X+$%%%$%&&&&&&&&&&%$%%%$+ .oo",
".  X+$%%%%&&&&&&&&&&&&%%%%$+X ..",
"  ..+#%%%%&&&&&&&&&&&&%%%%#+.X  ",
"X.oo.+#$%%&&&&&&&&&&&&%%$#+.o.XX",
"oo....++$%&&&&&&&&&&&&%%$+o....X",
"ooo... +#%&&&%$&&%$&&&%$+...... ",
"o..... X+$%&&*#&&*#&&&$+.oo.oo. ",
"oo...  X+#%%%$+&%$+&&%#+X.oo... ",
"....  XOO+#$&#+%&#+%$#+OOX....  ",
"X..  X...X++#$$##$$#++...X     X",
"O   X.oo..XX++++++++X.oo..XX...X",
"XOOOO.ooo.. ooo.XOOOO.ooo.. ooo.",
".XOO.oo.... .....XOO.oo.... ....",
"..XOoooo... oo....XOoooo... oo..",
".. X.o....  oooo.. X.o....  oooo",
".. X.oo..  X...... X.oo..  X....",
".. XX...  XO .oo.. XX...  XO .oo",
".  XO    XOOX ...  XO    XOOX .."
};
