/* XPM */
static char *xpm_[] = {
"32 32 12 1 ",
"  c #6B4918",
". c #A59242",
"X c #8C6118",
"o c #BDA252",
"O c #8C7108",
"+ c #641214",
"@ c #B4223C",
"# c #DC427C",
"$ c #FC6ABC",
"% c #7C0A24",
"& c #FC9ADC",
"* c #FCFAFC",
"  ...XXXX.oo.X    ...XXXX.oo.X  ",
"X.oo..XO.oo.o.XXX.oo..XO.oo.o.XX",
"oo.... Xooo....Xoo.... Xooo....X",
"ooo... X....... ooo... X....... ",
"o..... X.oo.oo.++++... X.oo.oo. ",
"oo...  XX.oo..+@##@+.  XX.oo... ",
"....  XOOX...+@$$$#@+ XOOX....  ",
"X..  X...X  ++#$$$##++++.X     X",
"O   X.oo..++@#$$$$##+%%%+.XX...X",
"XOOOO.ooo+@#$$$$$###@+%%+.. ooo.",
".XOO.oo.+@$$&&&&&$$$#@+%+.. ....",
"..XOoooo+#$&&&&&&&$$$#@++.. oo..",
".. X.o.+@&$&&&&&&&&$$$#++.  oooo",
".. X.oo+#@#*$&&&&&&&$$#@+  X....",
".. XX..+#++@#&&&&&&&$$$#+ XO .oo",
".  XO  +@$&&&&&&&&&&$$$#+XOOX ..",
"  ...XX+@&$&&&&&&&&&$$$#+.oo.X  ",
"X.oo..X+#@#*$&&&&&&&$$$#+oo.o.XX",
"oo.... +#++@#&&&&&&&$$#@+oo....X",
"ooo... +@$&&&&&&&&&$$$#++...... ",
"o..... X+#&&&&&&&&$$$#@++oo.oo. ",
"oo...  X+@$&&&&&&$$$#@+%+.oo... ",
"....  XOO+@#$$$$$###@+%%+X....  ",
"X..  X...X++#$$$$$##+%%%+X     X",
"O   X.oo..XX+##$$$##++++..XX...X",
"XOOOO.ooo.. o+@$$$#@+.ooo.. ooo.",
".XOO.oo.... ..+@##@+.oo.... ....",
"..XOoooo... oo.++++Ooooo... oo..",
".. X.o....  oooo.. X.o....  oooo",
".. X.oo..  X...... X.oo..  X....",
".. XX...  XO .oo.. XX...  XO .oo",
".  XO    XOOX ...  XO    XOOX .."
};
