/* XPM */
static char *xpm_[] = {
"8 8 10 1 ",
"  c #6B4918",
". c #A59242",
"X c #8C6118",
"o c #BDA252",
"O c #8C7108",
"+ c #641214",
"# c #DC427C",
"$ c #FC6ABC",
"% c #7C0A24",
"& c #FC9ADC",
"oO.XoO.X",
" . $#+ X",
"Oo&&$+ .",
"X+&&&#O.",
".+&&$+. ",
" .+$#% X",
"Oo +Oo .",
"X O.X O."
};
