/* XPM */
static char *xpm_[] = {
/* columns rows colors chars-per-pixel */
"32 32 5 1 ",
"  c #CEA25A",
". c #E7D3A5",
"X c #AD8239",
"o c #BD924A",
"O c #D6AA6B",
/* pixels */
"   .XXXXXX..       .XXXXXX..    ",
"   .XXXXXXX.       .XXXXXXX.    ",
"  ..XXXXXXX.      ..XXXXXXX.    ",
" ...XXXXXXX.     ...XXXXXXX.    ",
".....XXXXXX..   .....XXXXXX..   ",
"oooo..XXXX......oooo..XXXX......",
"ooooo...........ooooo...........",
"ooooo..OOOOOO..oooooo..OOOOOO..o",
"ooooo.OOOOOOOO.oooooo.OOOOOOOO.o",
"ooooo.OOOOOOOO.oooooo.OOOOOOOO.o",
"ooooo.OOOOOOOO.oooooo.OOOOOOOO.o",
"oooo..OOOOOOOO.ooooo..OOOOOOOO.o",
"......OOOOOOOO........OOOOOOOO..",
"   ....OOOOOO..    ....OOOOOO.. ",
"    .....OOO..      .....OOO..  ",
"    .XXXX....       .XXXX....   ",
"   .XXXXXX..       .XXXXXX..    ",
"   .XXXXXXX.       .XXXXXXX.    ",
"  ..XXXXXXX.      ..XXXXXXX.    ",
" ...XXXXXXX.     ...XXXXXXX.    ",
".....XXXXXX..   .....XXXXXX..   ",
"oooo..XXXX......oooo..XXXX......",
"ooooo...........ooooo...........",
"ooooo..OOOOOO..oooooo..OOOOOO..o",
"ooooo.OOOOOOOO.oooooo.OOOOOOOO.o",
"ooooo.OOOOOOOO.oooooo.OOOOOOOO.o",
"ooooo.OOOOOOOO.oooooo.OOOOOOOO.o",
"oooo..OOOOOOOO.ooooo..OOOOOOOO.o",
"......OOOOOOOO........OOOOOOOO..",
"   ....OOOOOO..    ....OOOOOO.. ",
"    .....OOO..      .....OOO..  ",
"    .XXXX....       .XXXX....   "
};
